<svg width="234" height="227" viewBox="0 0 234 227" fill="none" xmlns="http://www.w3.org/2000/svg">
<path fill-rule="evenodd" clip-rule="evenodd" d="M47.1289 28.655C90.5221 -9.23725 156.386 -8.46285 198.992 32.0998C244.054 74.999 245.803 146.524 202.81 191.693C161.34 235.26 93.1658 238.398 47.7965 199.664L80.3481 165.471C106.771 186.353 145.091 184.056 168.723 159.235C193.771 132.919 192.85 91.2347 166.534 66.1868C142.781 43.569 106.758 42.167 81.4296 61.3134L47.1289 28.655Z" fill="white"/>
<path d="M72.4494 79.6023L35.8257 42.9961L0.13758 78.383L36.7613 115.003L0 151.472L35.5506 186.996L72.3118 150.527L108 115.14L72.4494 79.6023Z" fill="white"/>
</svg>
